<svg xmlns="http://www.w3.org/2000/svg" version="1.0" width="394" height="663" preserveAspectRatio="xMidYMid meet" style=""><rect id="backgroundrect" width="100%" height="100%" x="0" y="0" fill="none" stroke="none"/>


<g class="currentLayer" style=""><title>Layer 1</title><g transform="translate(0,663) scale(0.10000000149011612,-0.10000000149011612) " fill="#fe5900" stroke="none" id="svg_1" class="selected" fill-opacity="1">
<path d="M1788.8888893127441,6615.111110687256 c-14,-2 -65,-9 -115,-15 c-120,-15 -303,-60 -423,-105 c-468,-173 -847,-505 -1058,-927 c-222,-441 -249,-878 -94,-1548 c187,-811 681,-1986 1313,-3124 c197,-355 480,-808 535,-858 c19,-17 21,-17 57,25 c128,149 497,754 767,1258 c631,1177 1026,2249 1135,3078 c21,162 24,525 5,632 c-82,457 -295,831 -635,1117 c-278,233 -610,384 -987,448 c-90,16 -443,29 -500,19 zm470,-868 c393,-109 694,-423 765,-801 c25,-131 17,-319 -20,-440 c-116,-391 -453,-677 -872,-740 c-124,-19 -212,-19 -336,0 c-247,37 -445,139 -622,319 c-192,195 -285,418 -285,679 c0,498 366,912 889,1007 c25,5 123,7 216,5 c146,-3 184,-7 265,-29 z" id="svg_2" fill="#fe5900" stroke="none" stroke-opacity="1"/>
</g></g></svg>