<svg xmlns:dc="http://purl.org/dc/elements/1.1/" xmlns:cc="http://creativecommons.org/ns#" xmlns:rdf="http://www.w3.org/1999/02/22-rdf-syntax-ns#" xmlns:svg="http://www.w3.org/2000/svg" xmlns:sodipodi="http://sodipodi.sourceforge.net/DTD/sodipodi-0.dtd" xmlns:inkscape="http://www.inkscape.org/namespaces/inkscape" xmlns="http://www.w3.org/2000/svg" xmlns:xlink="http://www.w3.org/1999/xlink" version="1.1" inkscape:export-filename="/home/matt/Programming/openstreetmap/icons/highway=bus_stop.png" inkscape:export-ydpi="90" inkscape:export-xdpi="90" inkscape:output_extension="org.inkscape.output.svg.inkscape" sodipodi:docname="highway=bus_stop.svg" inkscape:version="0.46" sodipodi:version="0.32" width="579.9970092773438" height="579.9970092773438" enable-background="new 0 0 579.997 579.997" xml:space="preserve" style=""><rect id="backgroundrect" width="100%" height="100%" x="0" y="0" fill="none" stroke="none"/>
<defs>
	
	
		<inkscape:perspective inkscape:vp_z="16 : 8 : 1" inkscape:vp_y="0 : 1000 : 0" inkscape:vp_x="0 : 8 : 1" sodipodi:type="inkscape:persp3d" id="perspective3435" inkscape:persp3d-origin="8 : 5.3333333 : 1">
		</inkscape:perspective>
</defs>
<sodipodi:namedview showgrid="true" inkscape:cy="8" inkscape:cx="-4.6431372" inkscape:zoom="31.875" pagecolor="#ffffff" bordercolor="#666666" borderopacity="1.0" id="base" inkscape:document-units="px" inkscape:grid-bbox="true" inkscape:current-layer="layer2" inkscape:window-y="0" inkscape:window-x="0" inkscape:pageopacity="0.0" inkscape:pageshadow="2" inkscape:window-width="1280" inkscape:window-height="723">
	</sodipodi:namedview>

<g class="currentLayer" style=""><title>Layer 1</title><path fill="#fe0000" fill-opacity="1" stroke="#000000" stroke-opacity="1" stroke-width="param(outline-width)" d="M478.21227851208494,21.881667923233856 H101.59770201095392 c-25.47850224494934,0 -46.11925690555573,20.057056272745132 -46.11925690555573,44.789552724719044 V435.07657678594387 c0,24.73359474658966 20.640754660606383,44.789552724719044 46.11925690555573,44.789552724719044 h14.65013879084587 v49.3485736746788 c0,14.646856995582581 12.240315976381304,26.511733729481698 27.328295813798906,26.511733729481698 h6.1512707240581515 c15.087979837417603,0 27.309062486171726,-11.864876733899118 27.309062486171726,-26.511733729481698 v-49.3485736746788 h223.5885650382042 v49.3485736746788 c0,14.646856995582581 12.22108264875412,26.511733729481698 27.309062486171726,26.511733729481698 h6.170504051685333 c15.047250437736512,0 27.309062486171726,-11.864876733899118 27.309062486171726,-26.511733729481698 v-49.3485736746788 h16.7997459962368 c25.47850224494934,0 46.13849023318291,-20.057056272745132 46.13849023318291,-44.789552724719044 V66.6712206479529 C524.3507687452678,41.93872419597898 503.6896493848209,21.881667923233856 478.21227851208494,21.881667923233856 zM181.37528226407815,58.303313970587595 c0,-9.25642702150345 7.722746728420258,-16.753386068582536 17.257951742649077,-16.753386068582536 h182.563877209425 c9.514840314388275,0 17.237587042808535,7.496959047079087 17.237587042808535,16.753386068582536 v17.062006855607034 c0,9.25642702150345 -7.722746728420258,16.753386068582536 -17.237587042808535,16.753386068582536 H198.63210263451387 c-9.535205014228822,0 -17.257951742649077,-7.496959047079087 -17.257951742649077,-16.753386068582536 V58.303313970587595 zM91.28750703057099,386.4210270138005 c0,-15.882438438296319 13.297017623662951,-28.751156450986862 29.67702452874184,-28.751156450986862 c16.38113827729225,0 29.65779120111465,12.868718012690545 29.65779120111465,28.751156450986862 c0,15.920878749847413 -13.275521551609039,28.83023366332054 -29.65779120111465,28.83023366332054 C104.58452465423395,415.251260677121 91.28750703057099,402.3419057636479 91.28750703057099,386.4210270138005 zM176.19925438793945,391.3677459631184 h227.41034037494657 c7.564354618549347,0 13.654531243085863,5.3322203594446185 13.654531243085863,11.941757357001304 s-6.091307996749879,11.941757357001304 -13.654531243085863,11.941757357001304 H176.19925438793945 c-7.542858546495437,0 -13.634166543245316,-5.3322203594446185 -13.634166543245316,-11.941757357001304 S168.656395841444,391.3677459631184 176.19925438793945,391.3677459631184 zM162.5662192169075,370.9636285917977 c0,-6.569998391389847 6.091307996749879,-11.903317045450212 13.634166543245316,-11.903317045450212 h227.41034037494657 c7.564354618549347,0 13.654531243085863,5.3322203594446185 13.654531243085863,11.903317045450212 c0,6.64797730910778 -6.091307996749879,11.980197668552398 -13.654531243085863,11.980197668552398 H176.19925438793945 C168.656395841444,382.94382626035014 162.5662192169075,377.6105076062898 162.5662192169075,370.9636285917977 zM458.50716867193034,415.251260677121 c-16.36190494966507,0 -29.65779120111465,-12.909354913473129 -29.65779120111465,-28.83023366332054 c0,-15.882438438296319 13.295886251449586,-28.751156450986862 29.65779120111465,-28.751156450986862 c16.360773577451706,0 29.65779120111465,12.868718012690545 29.65779120111465,28.751156450986862 C488.16495987304495,402.3419057636479 474.86794224938205,415.251260677121 458.50716867193034,415.251260677121 zM488.16495987304495,270.6410052111367 c0,21.678139125585556 -18.073671108484266,39.26183592367172 -40.40695860028267,39.26183592367172 H132.07121257790376 c-22.312922791957856,0 -40.42619192790985,-17.58369679808617 -40.42619192790985,-39.26183592367172 V148.2108095101336 c0,-21.659468117117882 18.11440050816536,-39.223395612120626 40.42619192790985,-39.223395612120626 h315.68565732264517 c22.333287491798398,0 40.40695860028267,17.563927495002748 40.40695860028267,39.223395612120626 V270.6410052111367 z" id="svg_1" class="selected"/></g></svg>