<svg xmlns:dc="http://purl.org/dc/elements/1.1/" xmlns:cc="http://creativecommons.org/ns#" xmlns:rdf="http://www.w3.org/1999/02/22-rdf-syntax-ns#" xmlns:svg="http://www.w3.org/2000/svg" xmlns:sodipodi="http://sodipodi.sourceforge.net/DTD/sodipodi-0.dtd" xmlns:inkscape="http://www.inkscape.org/namespaces/inkscape" xmlns="http://www.w3.org/2000/svg" xmlns:xlink="http://www.w3.org/1999/xlink" version="1.1" inkscape:export-filename="/home/matt/Programming/openstreetmap/icons/railway=station.png" inkscape:export-ydpi="90" inkscape:export-xdpi="90" inkscape:output_extension="org.inkscape.output.svg.inkscape" sodipodi:docname="railway=station.svg" inkscape:version="0.46" sodipodi:version="0.32" width="579.9970092773438" height="579.9970092773438" enable-background="new 0 0 579.997 579.997" xml:space="preserve"><rect id="backgroundrect" width="100%" height="100%" x="0" y="0" fill="none" stroke="none"/>
<defs>
	
	
		<inkscape:perspective inkscape:vp_z="16 : 8 : 1" inkscape:vp_y="0 : 1000 : 0" inkscape:vp_x="0 : 8 : 1" sodipodi:type="inkscape:persp3d" id="perspective3435" inkscape:persp3d-origin="8 : 5.3333333 : 1">
		</inkscape:perspective>
</defs>
<sodipodi:namedview showgrid="true" inkscape:cy="8.2609752" inkscape:cx="8" inkscape:zoom="31.875" pagecolor="#ffffff" bordercolor="#666666" borderopacity="1.0" id="base" inkscape:document-units="px" inkscape:grid-bbox="true" inkscape:current-layer="layer2" inkscape:window-y="0" inkscape:window-x="0" inkscape:pageopacity="0.0" inkscape:pageshadow="2" inkscape:window-width="1280" inkscape:window-height="723">
	</sodipodi:namedview>

<g class="currentLayer" style=""><title>Layer 1</title><path fill="#fe9900" stroke="#000000" stroke-opacity="1" stroke-width="" d="M408.0858889551163,103.656 h-45.916 V67.136 h54.744 V30.829 h-249.45 v36.307 h49.054 v36.521 h-40.226 c-49.727,0 -90.058,40.313 -90.058,90.057 v185.383 c0,39.607 25.569,73.234 61.091,85.295 v74.398 h32.495 v-69.637 h216.104 v69.637 h37.051 v-73.122 c37.635,-10.797 65.168,-45.462 65.168,-86.571 V193.713 C498.14388895511627,143.969 457.82988895511625,103.656 408.0858889551163,103.656 zM252.82488895511628,67.136 h73.039 v36.521 h-73.039 V67.136 zM206.21688895511627,385.725 c0.019000000000000003,20.246 -16.398,36.697 -36.644,36.697 c-20.263,0 -36.696,-16.381 -36.696,-36.66 c0,0 0,0 0,-0.037000000000000005 c-0.019000000000000003,-20.244 16.398,-36.695 36.661,-36.695 c20.245,0 36.679,16.416 36.679,36.66 V385.725 zM450.24288895511626,384.592 c0.035,20.244 -16.381,36.695 -36.662,36.695 c-20.21,0 -36.661,-16.416 -36.661,-36.66 c0,0 0,0 0,-0.035 c0,-20.246 16.381,-36.697 36.661,-36.697 c20.246,0 36.662,16.416 36.662,36.66 C450.24288895511626,384.555 450.24288895511626,384.555 450.24288895511626,384.592 zM456.8378889551163,260.725 c0,18.916 -15.388,34.252 -34.286,34.252 H155.00088895511627 c-18.934,0 -34.269,-15.336 -34.269,-34.252 v-79.35 c0,-18.916 15.335,-34.268 34.269,-34.268 h267.551 c18.898,0 34.286,15.352 34.286,34.268 V260.725 z" id="svg_1" class="selected" stroke-dasharray="none" fill-opacity="1"/></g></svg>