<?xml version="1.0" standalone="no"?>
<!DOCTYPE svg PUBLIC "-//W3C//DTD SVG 20010904//EN"
 "http://www.w3.org/TR/2001/REC-SVG-20010904/DTD/svg10.dtd">
<svg version="1.0" xmlns="http://www.w3.org/2000/svg"
 width="192.000000pt" height="192.000000pt" viewBox="0 0 192.000000 192.000000"
 preserveAspectRatio="xMidYMid meet">
<metadata>
Created by potrace 1.11, written by Peter Selinger 2001-2013
</metadata>
<g transform="translate(0.000000,192.000000) scale(0.100000,-0.100000)"
fill="#000000" stroke="none">
<path d="M530 1525 l0 -55 -35 0 -35 0 0 -565 0 -565 131 0 130 0 -3 110 -3
110 48 0 47 0 0 -110 0 -110 135 0 135 0 0 54 0 54 30 -14 c26 -13 28 -18 20
-40 -6 -14 -10 -50 -10 -80 l0 -54 35 0 c26 0 35 4 35 16 0 9 5 34 11 54 l12
38 33 -14 c39 -16 143 -18 195 -4 46 13 111 75 139 132 12 24 25 77 30 118 13
107 27 176 39 199 6 11 11 33 11 49 0 31 -30 52 -75 52 -56 0 -55 -3 -55 196
l0 184 -205 0 -205 0 0 -65 0 -65 30 0 c23 0 30 -4 30 -20 0 -16 -7 -20 -30
-20 -28 0 -30 -3 -30 -35 0 -32 2 -35 30 -35 23 0 30 -4 30 -20 0 -16 -7 -20
-30 -20 -28 0 -30 -2 -30 -40 0 -38 2 -40 30 -40 23 0 30 -4 30 -20 0 -16 -7
-20 -30 -20 -26 0 -30 -4 -30 -28 0 -27 -15 -52 -32 -52 -4 0 -8 151 -8 335
l0 335 -40 0 -40 0 0 55 0 55 -235 0 -235 0 0 -55z m90 -205 c0 -13 -7 -20
-19 -20 -10 0 -21 9 -24 20 -4 16 0 20 19 20 17 0 24 -6 24 -20z m110 0 c0
-13 -7 -20 -20 -20 -13 0 -20 7 -20 20 0 13 7 20 20 20 13 0 20 -7 20 -20z
m110 0 c0 -13 -7 -20 -20 -20 -13 0 -20 7 -20 20 0 13 7 20 20 20 13 0 20 -7
20 -20z m110 0 c0 -13 -7 -20 -20 -20 -13 0 -20 7 -20 20 0 13 7 20 20 20 13
0 20 -7 20 -20z m-330 -135 c0 -40 -2 -45 -22 -45 -20 0 -23 5 -23 45 0 40 3
45 23 45 20 0 22 -5 22 -45z m110 0 c0 -38 -3 -45 -20 -45 -17 0 -20 7 -20 45
0 38 3 45 20 45 17 0 20 -7 20 -45z m110 0 c0 -38 -3 -45 -20 -45 -17 0 -20 7
-20 45 0 38 3 45 20 45 17 0 20 -7 20 -45z m110 0 c0 -38 -3 -45 -20 -45 -17
0 -20 7 -20 45 0 38 3 45 20 45 17 0 20 -7 20 -45z m340 -55 c0 -13 -7 -20
-20 -20 -13 0 -20 7 -20 20 0 13 7 20 20 20 13 0 20 -7 20 -20z m110 0 c0 -13
-7 -20 -20 -20 -13 0 -20 7 -20 20 0 13 7 20 20 20 13 0 20 -7 20 -20z m-780
-115 c0 -40 -2 -45 -22 -45 -20 0 -23 5 -23 45 0 40 3 45 23 45 20 0 22 -5 22
-45z m110 0 c0 -38 -3 -45 -20 -45 -17 0 -20 7 -20 45 0 38 3 45 20 45 17 0
20 -7 20 -45z m110 0 c0 -38 -3 -45 -20 -45 -17 0 -20 7 -20 45 0 38 3 45 20
45 17 0 20 -7 20 -45z m110 0 c0 -38 -3 -45 -20 -45 -17 0 -20 7 -20 45 0 38
3 45 20 45 17 0 20 -7 20 -45z m340 5 c0 -13 -7 -20 -20 -20 -13 0 -20 7 -20
20 0 13 7 20 20 20 13 0 20 -7 20 -20z m110 0 c0 -13 -7 -20 -20 -20 -13 0
-20 7 -20 20 0 13 7 20 20 20 13 0 20 -7 20 -20z m-110 -109 c0 -5 -9 -11 -20
-14 -13 -3 -20 0 -20 9 0 8 9 14 20 14 11 0 20 -4 20 -9z m103 2 c-7 -2 -19
-2 -25 0 -7 3 -2 5 12 5 14 0 19 -2 13 -5z m-773 -63 c0 -45 -2 -50 -22 -50
-21 0 -23 4 -20 50 3 41 7 50 23 50 16 0 19 -8 19 -50z m110 0 c0 -43 -3 -50
-20 -50 -17 0 -20 7 -20 50 0 43 3 50 20 50 17 0 20 -7 20 -50z m110 0 c0 -43
-3 -50 -20 -50 -17 0 -20 7 -20 50 0 43 3 50 20 50 17 0 20 -7 20 -50z m110 0
c0 -43 -3 -50 -20 -50 -17 0 -20 7 -20 50 0 43 3 50 20 50 17 0 20 -7 20 -50z
m616 -32 c4 -4 2 -13 -3 -20 -6 -7 -11 -20 -12 -28 -9 -95 -24 -199 -31 -215
-5 -11 -12 -30 -15 -42 -8 -31 -79 -89 -116 -97 -42 -8 -100 2 -128 23 -22 17
-22 18 -5 54 10 20 21 37 26 37 4 0 8 5 8 11 0 21 87 114 149 159 51 37 61 49
59 70 -9 73 -139 -3 -250 -145 -25 -33 -53 -74 -62 -92 -11 -23 -21 -30 -35
-26 -69 18 -87 121 -35 195 34 49 89 88 154 111 47 16 281 20 296 5z m-946
-138 c0 -43 -3 -50 -20 -50 -17 0 -20 7 -20 50 0 43 3 50 20 50 17 0 20 -7 20
-50z m110 0 c0 -43 -3 -50 -20 -50 -17 0 -20 7 -20 50 0 43 3 50 20 50 17 0
20 -7 20 -50z m110 0 c0 -43 -3 -50 -20 -50 -17 0 -20 7 -20 50 0 43 3 50 20
50 17 0 20 -7 20 -50z m110 0 c0 -43 -3 -50 -20 -50 -17 0 -20 7 -20 50 0 43
3 50 20 50 17 0 20 -7 20 -50z m-330 -170 c0 -42 -3 -50 -19 -50 -16 0 -20 9
-23 50 -3 46 -1 50 20 50 20 0 22 -5 22 -50z m330 0 c0 -43 -3 -50 -20 -50
-17 0 -20 7 -20 50 0 43 3 50 20 50 17 0 20 -7 20 -50z"/>
</g>
</svg>
